<svg xmlns="http://www.w3.org/2000/svg" viewBox="0 0 600 400" role="img" aria-labelledby="title description">
  <title id="title">Electrical panel inspection first-person data</title>
  <desc id="description">Abstract first-person inspection of a closed low-voltage control panel using an insulated diagnostic tool and safe capture framing.</desc>
  <defs>
    <pattern id="grid" width="30" height="30" patternUnits="userSpaceOnUse">
      <path d="M30 0H0V30" fill="none" stroke="#84cc16" stroke-opacity=".08"/>
    </pattern>
    <linearGradient id="panel" x1="0" y1="0" x2="1" y2="1">
      <stop stop-color="#161c29"/>
      <stop offset="1" stop-color="#0e1118"/>
    </linearGradient>
  </defs>
  <rect width="600" height="400" rx="24" fill="#0e1118"/>
  <rect width="600" height="400" rx="24" fill="url(#grid)"/>
  <path d="M34 86V40h46M520 40h46v46M34 276v46h46M520 322h46v-46" fill="none" stroke="#84cc16" stroke-width="2"/>
  <text x="38" y="30" fill="#84cc16" font-family="ui-monospace, SFMono-Regular, Menlo, monospace" font-size="12" letter-spacing="2">POV / VISUAL INSPECTION</text>
  <rect x="143" y="53" width="315" height="250" rx="16" fill="url(#panel)" stroke="#84cc16" stroke-opacity=".68" stroke-width="2"/>
  <rect x="165" y="76" width="271" height="202" rx="10" fill="#0e1118" stroke="#ffffff" stroke-opacity=".2"/>
  <path d="M300 76v202" stroke="#ffffff" stroke-opacity=".1"/>
  <g fill="#161c29" stroke="#ffffff" stroke-opacity=".32">
    <rect x="186" y="98" width="45" height="58" rx="5"/><rect x="244" y="98" width="35" height="58" rx="5"/>
    <rect x="321" y="98" width="42" height="58" rx="5"/><rect x="376" y="98" width="38" height="58" rx="5"/>
    <rect x="186" y="176" width="93" height="73" rx="5"/><rect x="321" y="176" width="93" height="73" rx="5"/>
  </g>
  <g stroke="#84cc16" stroke-width="3" stroke-linecap="round">
    <path d="M199 116h19v21h-19zM253 117v20M332 117h20v20h-20zM386 117v20"/>
    <path d="M205 198c18-16 31-16 49 0v28M343 225v-28c17-15 30-15 48 0" fill="none"/>
  </g>
  <circle cx="207" cy="238" r="5" fill="#84cc16"/><circle cx="256" cy="238" r="5" fill="#ffffff" fill-opacity=".65"/>
  <circle cx="343" cy="238" r="5" fill="#ffffff" fill-opacity=".65"/><circle cx="392" cy="238" r="5" fill="#84cc16"/>
  <path d="M98 319c12-46 36-77 72-94l40 32c-25 27-37 51-41 68z" fill="#161c29" stroke="#ffffff" stroke-opacity=".44" stroke-width="2"/>
  <path d="M483 319c-10-38-30-67-61-87l-37 30c20 22 31 43 35 63z" fill="#161c29" stroke="#ffffff" stroke-opacity=".44" stroke-width="2"/>
  <path d="M421 241l-74-37" stroke="#84cc16" stroke-width="13" stroke-linecap="round"/>
  <path d="M348 204l-35-18" stroke="#ffffff" stroke-opacity=".9" stroke-width="6" stroke-linecap="round"/>
  <path d="M119 82h60m-30-30v60" stroke="#84cc16" stroke-opacity=".5"/>
  <circle cx="149" cy="82" r="22" fill="none" stroke="#84cc16" stroke-opacity=".35"/>
  <text x="478" y="78" fill="#ffffff" fill-opacity=".6" font-family="ui-monospace, SFMono-Regular, Menlo, monospace" font-size="12">VISUAL CHECK</text>
  <text x="478" y="98" fill="#84cc16" font-family="ui-monospace, SFMono-Regular, Menlo, monospace" font-size="12">SAFE STANDOFF</text>
  <rect x="34" y="340" width="532" height="1" fill="#ffffff" fill-opacity=".12"/>
  <text x="34" y="369" fill="#ffffff" font-family="ui-monospace, SFMono-Regular, Menlo, monospace" font-size="20" font-weight="700" letter-spacing=".5">ELECTRICAL PANEL INSPECTION</text>
  <text x="566" y="369" text-anchor="end" fill="#84cc16" font-family="ui-monospace, SFMono-Regular, Menlo, monospace" font-size="12">FIRST-PERSON DATA</text>
  <text x="566" y="392" text-anchor="end" fill="#ffffff" fill-opacity=".34" font-family="ui-monospace, SFMono-Regular, Menlo, monospace" font-size="12">DigiRobotics</text>
</svg>
